<svg width="118" height="88" viewBox="0 0 118 88" fill="none" xmlns="http://www.w3.org/2000/svg">
<path fill-rule="evenodd" clip-rule="evenodd" d="M57.4686 0.894377C46.6826 1.57325 36.4692 5.69477 28.2766 12.6745C25.9176 14.6842 22.5693 18.2758 20.671 20.8325C13.9114 29.9366 10.4288 41.2684 10.952 52.4561L11.0488 54.5246L10.8343 54.7795C10.5478 55.1199 10.5572 55.4486 10.8628 55.7907L11.1058 56.0627L60.231 56.0863C87.2499 56.0993 109.475 56.0887 109.621 56.0628C109.766 56.0369 110.001 55.9082 110.141 55.7768C110.465 55.4744 110.48 55.1324 110.184 54.7807L109.97 54.527L110.058 52.5048C110.339 46.0341 109.296 39.2862 107.097 33.3422C105.084 27.9017 102.215 22.9571 98.4385 18.4171C97.3401 17.0967 94.0525 13.7937 92.7312 12.6829C88.349 8.99934 83.8684 6.30485 78.7441 4.27182C72.0591 1.61955 64.6453 0.44263 57.4686 0.894377ZM57.8017 1.80903C43.5513 2.61808 30.4294 9.61683 21.7442 21.0407C18.0157 25.9449 15.2475 31.5445 13.5844 37.5466C12.7113 40.6976 12.2251 43.5318 11.9442 47.1094C11.8437 48.3893 11.8763 54.1649 11.985 54.3408C12.0272 54.4092 12.447 54.4386 13.3782 54.4386H14.7108L14.6434 53.2102C13.9874 41.2674 17.7298 29.9521 25.3674 20.7862C26.4731 19.4592 29.3473 16.5761 30.6919 15.4451C35.8463 11.1097 41.94 7.86039 48.0988 6.16318C54.4944 4.40075 61.0283 4.01413 67.5046 5.01499C76.0208 6.33108 83.8352 9.91149 90.4084 15.5089C91.6442 16.5613 94.221 19.137 95.3175 20.416C101.719 27.8833 105.53 37.0517 106.325 46.9012C106.437 48.2918 106.445 52.4751 106.338 53.6682L106.269 54.4386H107.624H108.978L109.042 54.2096C109.153 53.8142 109.117 47.3425 108.997 46.11C108.102 36.8731 104.866 28.4726 99.4097 21.2236C95.2829 15.7406 90.0708 11.1983 84.0787 7.86273C76.0849 3.41297 66.8846 1.2934 57.8017 1.80903ZM60.1754 2.05131C60.0304 2.19631 60.0088 2.32891 60.0088 3.07382C60.0088 4.04645 60.1097 4.30005 60.4966 4.30005C60.8841 4.30005 60.925 4.18378 60.925 3.07865C60.925 2.154 60.9097 2.04898 60.7639 1.97094C60.5248 1.84301 60.3614 1.86533 60.1754 2.05131ZM51.8094 2.79606C51.6706 2.94947 51.6702 3.00036 51.8021 3.77468C51.9744 4.78753 52.0384 4.94861 52.2942 5.01274C52.635 5.09836 52.8461 4.92371 52.8461 4.55616C52.8461 3.99897 52.5961 2.84978 52.4506 2.73843C52.2519 2.58635 51.9768 2.61108 51.8094 2.79606ZM68.512 2.74959C68.4016 2.88276 68.1712 4.11099 68.171 4.56782C68.1709 4.8764 68.3279 5.04963 68.6076 5.04963C68.8997 5.04963 69.0111 4.82917 69.1732 3.93068C69.3212 3.10972 69.3248 3.00294 69.2102 2.82804C69.0657 2.60767 68.667 2.56286 68.512 2.74959ZM43.7392 4.9521C43.6634 5.03589 43.6013 5.15982 43.6013 5.22762C43.6013 5.39994 44.0863 6.71712 44.2335 6.94441C44.458 7.2913 45.0172 7.12889 45.0172 6.71679C45.0172 6.41662 44.5438 5.08786 44.3776 4.9217C44.2101 4.75421 43.9051 4.76879 43.7392 4.9521ZM76.6511 4.90388C76.4861 5.03581 75.9998 6.39288 75.9998 6.72153C75.9998 6.90443 76.054 6.99346 76.2081 7.06367C76.6014 7.24291 76.7772 7.066 77.1123 6.15368C77.4606 5.20546 77.4706 5.12509 77.2634 4.93762C77.0823 4.77371 76.8311 4.75988 76.6511 4.90388ZM57.7184 5.46882C44.955 6.34624 33.3041 12.4247 25.3226 22.3701C19.8223 29.2238 16.4494 37.6762 15.6555 46.5959L15.6011 47.2067L16.0463 47.1518C16.5975 47.0838 17.5221 47.2661 18.0844 47.5535C18.9723 48.0072 19.7478 48.9421 20.0061 49.87L20.137 50.3403L20.7712 50.298C21.2665 50.265 21.511 50.2916 21.8877 50.4198C22.3511 50.5775 22.3731 50.578 22.4507 50.4331C22.6015 50.1513 23.4758 49.6038 24.0568 49.4273C25.6851 48.9326 27.4782 49.7468 28.1474 51.2845L28.3783 51.8151L28.9313 51.7883C29.4084 51.7652 29.5468 51.7942 29.9408 52.0001C30.2027 52.137 30.5107 52.3873 30.6632 52.5873C30.9662 52.9846 31.1471 53.6892 31.0622 54.1417L31.0065 54.4386H31.4739C31.7309 54.4386 31.9412 54.4068 31.9412 54.3679C31.9412 54.329 31.7198 53.8308 31.4492 53.2609C29.9902 50.1878 28.2473 45.1246 26.687 39.4262C26.4393 38.5216 26.2031 37.7813 26.1623 37.7813C26.1215 37.7813 25.7978 37.9904 25.4429 38.2459C24.8724 38.6567 24.7918 38.7475 24.7464 39.0314C24.6923 39.3699 24.7899 39.7291 24.9984 39.9597C25.072 40.041 25.1124 40.2115 25.0967 40.3747C25.0758 40.5922 25.0196 40.6694 24.8353 40.7337C24.5047 40.8493 24.205 40.6604 23.9377 40.1681L23.7217 39.7699L23.5776 39.9898C23.3632 40.3171 23.4666 40.7768 23.8263 41.0953C24.4995 41.6913 23.8595 42.3641 23.1407 41.8159C22.9003 41.6326 22.8543 41.6215 22.8102 41.7363C22.7821 41.8096 22.8053 42.0648 22.8618 42.3033C22.9183 42.5417 22.9698 42.9044 22.9762 43.109C22.9868 43.4461 22.9658 43.4889 22.7544 43.5639C22.2449 43.7445 21.92 43.1905 21.8773 42.0687C21.8449 41.2169 21.9909 40.6738 22.4663 39.8783C22.8309 39.2683 23.8053 38.2396 24.582 37.6447L25.2158 37.1592L24.9347 37.101C24.3782 36.9858 24.0518 36.9977 23.8331 37.1409C23.5464 37.3287 23.3474 37.6412 23.31 37.9624C23.2682 38.3214 23.1392 38.4476 22.814 38.4476C22.6164 38.4476 22.5085 38.3968 22.442 38.2725C22.3486 38.098 22.3718 37.4822 22.4845 37.1461C22.5363 36.9914 22.5175 36.9739 22.3363 37.0085C22.2221 37.0303 22.0235 37.1581 21.8948 37.2923C21.7005 37.4952 21.6637 37.6008 21.6774 37.917C21.7002 38.4399 21.5911 38.6142 21.2407 38.6142C20.8994 38.6142 20.6975 38.3751 20.6975 37.9709C20.6975 37.8209 20.6583 37.698 20.6102 37.698C20.4699 37.698 20.1134 38.124 19.8968 38.5503C19.6797 38.9778 19.4221 39.1116 19.1238 38.952C18.8382 38.7992 18.8213 38.4974 19.0698 37.9894C19.5017 37.1066 20.4228 36.4295 21.5806 36.1436C22.2421 35.9802 24.0876 35.9532 24.9035 36.095C25.1783 36.1427 25.4123 36.1734 25.4235 36.163C25.4347 36.1527 25.2924 35.9411 25.1073 35.6927C24.7438 35.2049 24.4524 35.065 23.9833 35.153C23.8377 35.1803 23.6515 35.2769 23.5694 35.3677C23.2773 35.6904 22.6964 35.5037 22.6964 35.0871C22.6964 34.8091 22.916 34.5517 23.335 34.3387L23.7125 34.1468L23.485 33.9978C23.151 33.7789 22.727 33.8726 22.391 34.2393C22.0896 34.5684 21.8005 34.6191 21.5849 34.3808C21.3878 34.1629 21.4147 33.8349 21.6529 33.5517C21.7662 33.4171 21.8349 33.283 21.8056 33.2538C21.7154 33.1635 21.3549 33.1944 20.8524 33.3354C20.2758 33.4972 19.9699 33.442 19.9 33.1636C19.8205 32.8467 19.9269 32.6523 20.2621 32.502C21.0269 32.1591 22.1702 32.1909 23.0167 32.5784C23.9026 32.9839 24.99 33.9149 25.8346 34.9909L26.0959 35.3238L26.1501 34.9909C26.4235 33.3121 26.7201 32.414 27.2867 31.549C27.849 30.6906 28.7538 30.0805 29.6167 29.9778C30.139 29.9156 30.3587 30.0441 30.3587 30.4114C30.3587 30.7485 30.163 30.9071 29.6438 30.9904C29.2458 31.0543 28.7456 31.3346 28.8188 31.4528C28.8466 31.4979 28.9184 31.5348 28.9782 31.5348C29.0381 31.5348 29.1857 31.6125 29.3064 31.7075C29.4677 31.8343 29.5259 31.9562 29.5259 32.1673C29.5259 32.5561 29.2534 32.6917 28.7837 32.5367C28.3907 32.407 28.081 32.4724 27.8113 32.742C27.5053 33.048 27.5587 33.1173 28.1007 33.1173C28.6763 33.1173 28.9637 33.2922 28.9637 33.6425C28.9637 34.0103 28.8079 34.1206 28.317 34.1C27.9648 34.0853 27.815 34.1244 27.5486 34.3007C27.2047 34.5283 27.1136 34.7652 27.1115 35.4384L27.1106 35.7192L27.4645 35.4322C28.4244 34.654 29.4652 34.0745 30.4287 33.7819C31.2917 33.5198 32.4564 33.5654 33.1099 33.8872C33.9441 34.2976 34.2292 34.7375 33.871 35.0616C33.6511 35.2606 33.4216 35.2326 32.9669 34.951C32.7463 34.8143 32.4377 34.6772 32.2812 34.6462C32.0226 34.5952 32.0031 34.6046 32.0683 34.7489C32.1078 34.8364 32.1422 35.0752 32.1447 35.2795C32.1486 35.5906 32.1169 35.6675 31.9499 35.7513C31.6673 35.8932 31.4298 35.7768 31.234 35.4006C30.9957 34.9426 30.4617 34.7246 30.1151 34.944C30.0201 35.0041 30.0497 35.0639 30.2639 35.2441C30.7945 35.6906 30.8836 36.1526 30.4891 36.4112C30.2474 36.5696 30.0498 36.4999 29.7341 36.1449C29.5514 35.9395 29.3805 35.8452 29.0981 35.7941C28.7291 35.7273 28.6932 35.7389 28.2861 36.0561C28.0518 36.2386 27.8601 36.4147 27.8601 36.4475C27.8601 36.4802 28.2256 36.5319 28.6722 36.5625C31.4937 36.7552 33.2672 37.8655 33.4185 39.5339C33.4571 39.9599 33.4423 40.0193 33.2657 40.1429C33.1582 40.2183 33.0063 40.2799 32.9281 40.2799C32.7259 40.2799 32.472 39.9232 32.4114 39.5541C32.3829 39.3807 32.276 39.1076 32.1736 38.9473L31.9877 38.6558L31.9428 39.0772C31.8831 39.6377 31.6767 39.9468 31.3622 39.9468C30.9686 39.9468 30.84 39.7486 30.9035 39.2402C30.9494 38.8729 30.9238 38.7324 30.7394 38.3427C30.414 37.655 30.2893 37.6633 30.3397 38.3691C30.3915 39.0916 30.2508 39.3638 29.8256 39.3638C29.4562 39.3638 29.3266 39.1944 29.3816 38.784C29.4123 38.5547 29.3767 38.3567 29.2634 38.1276C29.0005 37.5963 28.8968 37.5433 27.9978 37.4801L27.1843 37.4229L27.2426 37.6645C27.4121 38.3681 28.4364 41.9645 28.9007 43.4867C30.1472 47.5728 31.6541 51.5553 32.8509 53.9262C33.1081 54.4357 33.1116 54.4386 33.4719 54.4386H33.8343L34.2984 53.3351C34.9862 51.7 35.2683 50.9336 35.9618 48.8168C36.6097 46.8389 37.6573 43.2172 37.5972 43.1632C37.5784 43.1464 37.3675 43.1585 37.1284 43.1901C36.5683 43.2643 36.3554 43.4541 36.3554 43.8796C36.3554 44.3578 36.2359 44.5275 35.8991 44.5275C35.5536 44.5275 35.3574 44.2892 35.3526 43.8635L35.3493 43.5697L35.2248 43.799C35.1335 43.9675 35.1233 44.071 35.1865 44.1891C35.4989 44.7729 34.7794 45.2545 34.3709 44.7352L34.2067 44.5263L34.115 44.7892C34.0646 44.9338 34.0233 45.1194 34.0233 45.2016C34.0233 45.3734 33.723 45.6103 33.5051 45.6103C33.4237 45.6103 33.2779 45.5311 33.1813 45.4345C32.9624 45.2156 33.0096 44.7813 33.3227 44.1349C33.7942 43.1613 34.8796 42.5566 36.7271 42.2381L37.0571 42.1813L36.852 42.0237C36.5727 41.809 36.3388 41.823 36.0718 42.0706C35.5545 42.55 34.9415 42.0647 35.2756 41.4404C35.3287 41.3412 35.331 41.2794 35.2816 41.2794C35.1615 41.2794 34.9395 41.5246 34.9395 41.6571C34.9395 41.7949 34.6844 41.9456 34.4512 41.9456C34.2019 41.9456 34.0233 41.7184 34.0233 41.4009C34.0233 41.0876 33.9169 41.0825 33.5332 41.3768C33.2759 41.5742 33.0645 41.5698 32.8573 41.3626C32.5123 41.0176 32.7048 40.6463 33.4134 40.2907C34.1221 39.9351 35.1168 39.9827 36.1054 40.4195C36.3574 40.5309 36.5168 40.575 36.4595 40.5175C36.1559 40.2131 36.4938 39.6969 36.9967 39.6969C37.2207 39.6969 37.2799 39.6719 37.2132 39.6053C37.11 39.502 36.8369 39.4897 36.5093 39.5735C36.3448 39.6155 36.2438 39.5853 36.1137 39.4552C35.8791 39.2206 35.8936 38.9814 36.1573 38.7369L36.3758 38.5346L36.1519 38.4494C36.0288 38.4026 35.8582 38.3643 35.7729 38.3643C35.3534 38.3643 35.1988 37.7216 35.5611 37.4841C36.069 37.1514 37.265 37.7512 37.8548 38.6344C38.1704 39.1071 38.5297 40.0917 38.6434 40.7955L38.6931 41.1029L39.0442 40.7166C40.0795 39.5776 40.9342 39.094 41.9353 39.0809C42.5389 39.073 43.1686 39.3112 43.234 39.5723C43.3634 40.0877 43.1288 40.2697 42.5025 40.1398C42.2594 40.0894 42.0501 40.0576 42.0374 40.0692C42.0246 40.0808 42.0546 40.1965 42.104 40.3263C42.1779 40.5209 42.1659 40.5996 42.0354 40.775C41.8081 41.0808 41.5745 41.0838 41.2616 40.7848C41.1148 40.6445 40.9174 40.5298 40.8228 40.5298C40.6745 40.5298 40.6891 40.5617 40.9289 40.7618C41.2419 41.0231 41.2967 41.3521 41.0692 41.6035C40.9377 41.7488 40.9589 41.7599 41.5459 41.8546C42.3813 41.9894 43.0679 42.3285 43.5008 42.8204C43.9557 43.3372 44.0959 43.7712 43.903 44.0657C43.6419 44.4641 43.2461 44.3141 42.9067 43.6878L42.7535 43.4052L42.6413 43.6719C42.5011 44.0053 42.1885 44.1036 41.8902 43.908C41.7161 43.794 41.6828 43.7127 41.6989 43.4405C41.7242 43.0115 41.5631 42.8294 41.4885 43.2026C41.4166 43.562 41.2924 43.6949 41.0301 43.6934C40.7314 43.6917 40.6073 43.598 40.5325 43.3184C40.4445 42.9892 40.1089 42.753 39.8291 42.8232C39.6107 42.878 39.6126 42.8816 40.0557 43.2426C40.6959 43.764 41.2149 44.3863 41.5337 45.0143C41.7833 45.5061 41.8107 45.6302 41.8107 46.2722C41.8107 47.2991 41.5431 47.7168 40.9768 47.5747C40.7152 47.509 40.6474 47.2542 40.7727 46.8068C40.8941 46.3731 40.8647 46.3201 40.5755 46.4518C40.3985 46.5325 40.3221 46.5252 40.1483 46.4114C39.8707 46.2294 39.8641 45.8538 40.1339 45.5928C40.3059 45.4264 40.4837 45.0272 40.3858 45.0272C40.3666 45.0272 40.2461 45.1444 40.1183 45.2875C39.594 45.8743 38.8684 45.3528 39.3173 44.7119C39.5449 44.3869 39.4412 44.0281 39.0291 43.7146C38.8277 43.5613 38.6372 43.4661 38.6057 43.5029C38.5741 43.5397 38.3138 44.413 38.0269 45.4437C37.1452 48.6123 36.1306 51.5588 34.9654 54.3345C34.9307 54.4173 36.2549 54.4386 41.427 54.4386H47.9322V48.6919V42.9451H48.5152H49.0982V48.6919V54.4386H52.6379H56.1776V48.6919V42.9451H56.719H57.2603V48.6919V54.4386H59.9672H62.674V51.8151V49.1916H64.7145H66.755V51.8151V54.4386H69.4618H72.1687V49.1083V43.778H72.71H73.2514V49.1083V54.4386H79.4979C82.9335 54.4386 85.7444 54.4246 85.7444 54.4074C85.7444 54.3903 85.6096 54.081 85.4448 53.7203C84.3135 51.2439 83.3249 48.3217 81.8761 43.1721L81.7408 42.6912L81.3641 42.9504C81.1569 43.093 80.953 43.3001 80.9109 43.4105C80.8306 43.622 80.9174 43.9688 81.0752 44.0663C81.2176 44.1543 81.1769 44.573 81.0113 44.7228C80.766 44.9449 80.5045 44.8892 80.1904 44.5484L79.9027 44.236L79.9641 44.4849C79.9979 44.6218 80.113 44.8025 80.2198 44.8866C80.7157 45.2766 80.2182 45.9899 79.659 45.6906C79.5248 45.6188 79.4979 45.6321 79.4979 45.77C79.4979 45.861 79.5401 46.0283 79.5918 46.1415C79.8005 46.5996 79.4219 47.0365 78.9664 46.8633C78.714 46.7674 78.4985 46.1632 78.4985 45.5517C78.4985 44.6058 79.1347 43.4902 80.1638 42.6315C80.7329 42.1567 80.7349 42.1537 80.4853 42.1273C80.1531 42.0921 79.9132 42.2629 79.7991 42.6156C79.7182 42.8662 79.6667 42.9067 79.4017 42.9288C79.1622 42.9487 79.069 42.9138 78.9644 42.7645C78.8914 42.6602 78.8316 42.4873 78.8316 42.3802C78.8316 42.2717 78.7948 42.2084 78.7483 42.2371C78.7025 42.2655 78.665 42.4493 78.665 42.6456C78.665 43.3402 77.969 43.5396 77.7084 42.9197L77.6031 42.6693L77.4678 42.8905C77.3933 43.0121 77.2754 43.2054 77.2056 43.3199C77.0489 43.5772 76.6736 43.5999 76.4609 43.3648C76.1584 43.0305 76.5528 42.2098 77.2632 41.6952C77.6629 41.4056 78.5372 41.1128 79.002 41.1128C79.1777 41.1128 79.3446 41.0753 79.373 41.0295C79.4013 40.9837 79.386 40.9462 79.3391 40.9462C79.2004 40.9462 79.0677 40.6209 79.1285 40.4295C79.1594 40.332 79.301 40.1461 79.4432 40.0162C79.8067 39.6842 79.5148 39.6973 79.1358 40.03C78.8042 40.3212 78.5646 40.346 78.3319 40.1133C78.141 39.9224 78.1337 39.8741 78.2502 39.5677C78.3427 39.3244 78.3355 39.3236 77.6418 39.4939C77.1973 39.603 76.8813 38.994 77.2113 38.664C77.4178 38.4574 77.9952 38.343 78.628 38.3831C79.4462 38.4351 80.0893 38.7853 80.9747 39.6608L81.6603 40.3388L81.7103 40.0387C82.0376 38.0713 83.1547 36.702 84.4344 36.6994C84.7747 36.6987 84.8451 36.7276 84.9239 36.9006C85.0279 37.1289 84.9584 37.5212 84.8049 37.5725C84.749 37.5912 84.541 37.6481 84.3426 37.6989L83.9819 37.7914L84.1968 37.9906C84.4522 38.2272 84.474 38.5321 84.2501 38.7347C84.1226 38.8501 84.0038 38.8701 83.688 38.8293C83.1868 38.7647 82.9141 38.8996 83.3915 38.976C83.8171 39.044 84.033 39.2797 83.9679 39.6052L83.9187 39.8512L84.3581 39.6501C85.254 39.2399 86.4603 39.2478 87.1404 39.6683C87.6182 39.9637 87.7502 40.2548 87.547 40.565C87.367 40.8396 87.0926 40.8417 86.6943 40.5714C86.3044 40.3068 86.2652 40.3101 86.3082 40.6035C86.3639 40.9827 86.2038 41.1961 85.8636 41.1961C85.6203 41.1961 85.5445 41.1492 85.4046 40.912C85.3124 40.7557 85.1825 40.6071 85.1159 40.5815C84.98 40.5293 84.9488 40.6581 85.0781 40.738C85.2075 40.8179 85.1762 41.2527 85.0305 41.3984C84.8431 41.5857 84.4359 41.5655 84.3092 41.3626C84.1868 41.1668 83.7047 41.1375 83.4748 41.312C83.2613 41.4741 83.2949 41.5292 83.6073 41.5292C84.0642 41.5292 85.1365 41.8395 85.6873 42.131C86.5878 42.6077 87.1512 43.326 87.2844 44.1673C87.3297 44.4538 87.3089 44.5454 87.1665 44.6879C87.0715 44.7829 86.9058 44.8607 86.7984 44.8607C86.5796 44.8607 86.3274 44.626 86.3274 44.4223C86.3274 44.3487 86.2891 44.1878 86.2423 44.0647L86.1572 43.8408L85.9548 44.0593C85.7103 44.3231 85.4711 44.3376 85.2364 44.1029C85.1021 43.9685 85.0738 43.8673 85.114 43.6656C85.1902 43.284 85.1814 43.0983 85.0824 42.9993C85.0211 42.9381 84.9948 42.9931 84.9948 43.182C84.9948 43.358 84.9234 43.5238 84.7903 43.6568C84.5521 43.8951 84.4345 43.9095 84.1805 43.7316C84.0376 43.6315 83.9954 43.5196 83.9954 43.2411C83.9954 42.707 83.8005 42.5122 83.218 42.4639C82.9022 42.4377 82.7461 42.4555 82.7461 42.5179C82.7461 42.6601 83.9376 46.7716 84.3319 47.9902C85.0333 50.1575 86.5574 54.0081 86.8308 54.3036C86.9128 54.3923 87.6941 52.8511 88.4299 51.1488C89.4925 48.6905 90.4218 46.1015 91.4494 42.7369C92.1493 40.445 93.1754 36.7726 93.1288 36.7261C93.1087 36.7059 92.7281 36.7196 92.283 36.7565L91.4738 36.8235L91.2149 37.1814C90.9921 37.4893 90.9586 37.6019 90.9748 37.9879C90.9908 38.37 90.9659 38.4561 90.8074 38.567C90.5386 38.7553 90.3617 38.7285 90.1567 38.4684C90.0026 38.273 89.9807 38.1568 90.0076 37.6772C90.0472 36.9696 89.9355 36.9488 89.6217 37.6054C89.4255 38.0158 89.3966 38.1579 89.4444 38.4767C89.5314 39.0571 89.3095 39.3423 88.8588 39.2292C88.5905 39.1618 88.4665 38.9227 88.4103 38.3643L88.3643 37.9062L88.1807 38.1957C88.0798 38.3548 87.9561 38.6829 87.9059 38.9247C87.7819 39.5219 87.3682 39.7315 87.0365 39.365C86.8251 39.1315 86.9091 38.4174 87.2137 37.8577C87.8307 36.7241 89.2364 36.0741 91.5766 35.8402L92.599 35.738L92.1319 35.3855C91.4878 34.8991 91.042 34.9298 90.523 35.4964C90.379 35.6537 90.1817 35.7824 90.0849 35.7824C89.8793 35.7824 89.5756 35.5067 89.5756 35.3202C89.5756 35.1065 89.8039 34.7327 90.0723 34.5068C90.2114 34.3898 90.3252 34.2759 90.3252 34.2536C90.3252 34.2314 90.2166 34.1894 90.084 34.1603C89.7434 34.0855 89.2657 34.3043 89.1432 34.5913C88.9183 35.1185 88.5746 35.27 88.2975 34.9638C88.1238 34.7718 88.1195 34.2944 88.2894 34.052C88.3967 33.8987 88.3988 33.8668 88.3018 33.8668C88.0971 33.8668 87.6283 34.0538 87.3283 34.2552C86.9924 34.4807 86.6454 34.5061 86.4582 34.319C85.9486 33.8094 87.1069 32.96 88.4148 32.8843C89.7088 32.8093 91.0283 33.3176 92.5897 34.4921C92.92 34.7407 93.206 34.9282 93.2254 34.9089C93.2446 34.8896 93.2349 34.6354 93.2037 34.3441C93.1494 33.8375 93.1318 33.8045 92.8021 33.5907C92.5388 33.4199 92.3534 33.3671 92.0178 33.3671C91.639 33.3671 91.5591 33.3379 91.4396 33.1555C91.1469 32.7087 91.5894 32.3304 92.3439 32.3822C92.7048 32.407 92.7345 32.3951 92.6907 32.2427C92.5814 31.8633 91.9368 31.5908 91.5887 31.777C91.3516 31.9039 91.0304 31.8904 90.9127 31.7484C90.8581 31.6827 90.8255 31.5047 90.84 31.3528C90.8623 31.1206 90.9223 31.0502 91.2175 30.9102C91.4105 30.8185 91.5698 30.7163 91.5715 30.6828C91.5763 30.5847 90.9699 30.3044 90.6128 30.2399C90.1 30.1471 89.992 30.0626 89.992 29.7541C89.992 29.3346 90.2241 29.1697 90.7175 29.2384C91.7862 29.3873 92.8232 30.2465 93.4084 31.468C93.7319 32.143 94.1552 33.5872 94.1575 34.0232C94.1581 34.1433 94.1812 34.3257 94.2087 34.4284C94.2553 34.6023 94.276 34.5908 94.5111 34.2618C94.9244 33.6831 96.1605 32.5083 96.6966 32.1844C97.5156 31.6897 98.1583 31.512 98.987 31.551C100.044 31.6007 100.578 31.909 100.454 32.3992C100.37 32.736 100.073 32.8368 99.6566 32.6703C99.4697 32.5955 99.1312 32.5342 98.9045 32.5342H98.4923L98.698 32.8374C98.9346 33.186 98.9602 33.4652 98.7728 33.6527C98.5574 33.8682 98.2209 33.8157 97.9861 33.53C97.701 33.1832 97.2055 33.0687 96.8805 33.2745L96.6457 33.4232L97.0317 33.6241C97.244 33.7347 97.4763 33.9229 97.548 34.0422C97.7174 34.3242 97.6311 34.676 97.3624 34.7984C97.1889 34.8774 97.1104 34.8583 96.8397 34.6706C96.5986 34.5036 96.4196 34.4498 96.1039 34.4498C95.6562 34.4498 95.507 34.5569 95.0713 35.1911L94.8768 35.4743L95.1204 35.416C95.2544 35.384 95.9637 35.3373 96.6966 35.3124C98.194 35.2613 98.882 35.3598 99.687 35.7406C100.357 36.0577 100.981 36.661 101.275 37.2773C101.505 37.7582 101.513 37.8077 101.397 38.0161C101.257 38.2669 100.886 38.3571 100.685 38.1896C100.616 38.1326 100.51 37.968 100.45 37.8235C100.329 37.5342 99.8458 36.9484 99.7279 36.9484C99.6868 36.9484 99.6533 37.0813 99.6533 37.2437C99.6533 37.4462 99.589 37.6032 99.4488 37.7434C99.2094 37.9829 99.0931 37.9963 98.8332 37.8142C98.6877 37.7123 98.6457 37.6085 98.6562 37.377C98.6791 36.8707 98.6619 36.8043 98.4382 36.5384C98.1942 36.2483 97.7524 36.1631 97.8653 36.4279C97.8994 36.508 97.9451 36.7841 97.9667 37.0414C98.0019 37.4602 97.9856 37.5234 97.8116 37.6452C97.7048 37.7201 97.5534 37.7813 97.4753 37.7813C97.2742 37.7813 96.9881 37.3858 96.9881 37.1078C96.9881 36.9463 96.8907 36.7783 96.6758 36.5688C96.3653 36.2662 96.3604 36.2648 95.8289 36.3187C95.5348 36.3485 95.2627 36.3925 95.2241 36.4163C95.1855 36.4402 95.3817 36.631 95.6603 36.8403C97.1532 37.9625 98.111 39.1984 98.4085 40.3858C98.6104 41.1921 98.4007 42.5583 98.0383 42.7981C97.8338 42.9334 97.4912 42.8612 97.3556 42.6541C97.2333 42.4675 97.232 42.4145 97.3424 42.1335C97.5101 41.7072 97.5908 41.2229 97.5276 41.0237C97.4772 40.8646 97.4662 40.8662 97.2253 41.069C96.956 41.2956 96.5101 41.3511 96.3385 41.1794C96.1468 40.9878 96.2255 40.636 96.5246 40.3476C96.8831 40.002 96.9759 39.5533 96.7474 39.2711L96.5932 39.0806L96.4477 39.3679C96.214 39.8297 95.9876 40.03 95.6993 40.03C95.5562 40.03 95.394 39.9851 95.339 39.9301C95.1784 39.7695 95.2221 39.3509 95.4216 39.1386C95.6557 38.8894 95.6688 38.1926 95.4441 37.9443C95.2623 37.7435 94.1681 36.9898 94.1287 37.0381C94.113 37.0575 93.8846 37.8604 93.6213 38.8224C92.0126 44.6988 90.4044 49.3187 88.6998 52.9603L88.0079 54.4386H88.4463H88.8848L88.846 54.0343C88.7635 53.1758 89.207 52.3304 89.9774 51.8775C90.316 51.6784 90.4553 51.6485 91.0444 51.6485H91.7221L91.9516 51.1218C92.429 50.026 93.5481 49.1798 94.7129 49.0341C95.8714 48.8892 96.8618 49.1932 97.6864 49.9468L98.1352 50.357L98.4569 50.214C98.6942 50.1086 99.0013 50.0717 99.6261 50.0736L100.473 50.0763L100.528 49.7797C100.679 48.9622 101.398 47.9308 102.172 47.4215C102.952 46.9079 103.493 46.7513 104.507 46.7451L105.405 46.7396L105.362 46.404C105.338 46.2193 105.278 45.6935 105.229 45.2355C104.401 37.5618 101.26 29.7302 96.4412 23.3286C94.5889 20.8679 91.6719 17.7747 89.4969 15.9649C82.3306 10.0016 73.9837 6.51348 64.6729 5.59083C63.1037 5.43533 59.2013 5.36687 57.7184 5.46882ZM59.7589 11.0879V14.7109H60.3419H60.925V11.0879V7.46495H60.3419H59.7589V11.0879ZM53.9506 7.94227C53.4042 8.05612 53.3517 8.08452 53.3901 8.24534C53.4133 8.34287 53.7104 9.95389 54.0501 11.8253C54.3899 13.6966 54.6818 15.2417 54.6989 15.2588C54.747 15.3069 55.7936 15.1081 55.8774 15.0349C55.9541 14.968 54.6853 7.79018 54.5998 7.80742C54.5743 7.8125 54.2822 7.87322 53.9506 7.94227ZM65.9735 8.10193C65.6789 9.53512 64.7494 14.9063 64.7815 14.9901C64.8189 15.0876 65.9116 15.3322 65.9845 15.2594C66 15.2438 66.3041 13.6242 66.6602 11.6603L67.3075 8.0896L67.1061 8.03205C66.9953 8.0004 66.7061 7.94976 66.4635 7.91944C66.0286 7.86505 66.0218 7.86764 65.9735 8.10193ZM36.2074 8.42749C36.103 8.50054 36.0222 8.64487 36.0222 8.75806C36.0222 8.95703 36.798 10.365 36.9727 10.4828C37.2486 10.6692 37.688 10.4427 37.688 10.114C37.688 9.88809 36.8713 8.47888 36.6814 8.37736C36.4811 8.27008 36.4233 8.27616 36.2074 8.42749ZM84.3134 8.38526C84.1276 8.4927 83.3291 9.89459 83.3291 10.1132C83.3291 10.4434 83.7652 10.668 84.0468 10.4828C84.1798 10.3954 84.9948 8.93854 84.9948 8.78829C84.9948 8.48163 84.5755 8.2336 84.3134 8.38526ZM47.8489 9.52954C47.5512 9.64848 47.2948 9.7545 47.2791 9.76516C47.2551 9.78148 48.7245 13.746 49.5948 16.0126L49.8547 16.6896L50.4551 16.4532C50.824 16.3079 51.0452 16.1754 51.0287 16.1094C50.9501 15.7937 48.4756 9.2985 48.4365 9.30533C48.4111 9.30975 48.1467 9.41069 47.8489 9.52954ZM70.9328 12.6545C70.2434 14.4955 69.6679 16.0502 69.6539 16.1094C69.6383 16.1749 69.8619 16.3087 70.2274 16.4527C70.7582 16.6616 70.8325 16.6731 70.8797 16.5534C71.2618 15.5846 73.4185 9.77149 73.4006 9.7585C73.3872 9.74875 73.1086 9.64331 72.7812 9.52405L72.1861 9.30725L70.9328 12.6545ZM42.0888 12.1408L41.534 12.473L42.3847 13.9043C42.8526 14.6915 43.6799 16.0851 44.2234 17.0013C44.7668 17.9174 45.2399 18.6999 45.2748 18.7401C45.3345 18.8088 46.4331 18.2536 46.4331 18.1545C46.4331 18.1034 42.7794 11.9544 42.6958 11.8647C42.6671 11.8339 42.3939 11.9582 42.0888 12.1408ZM76.282 14.6948C75.3368 16.284 74.4931 17.7011 74.4072 17.844C74.3212 17.9868 74.2508 18.1381 74.2508 18.18C74.2508 18.2548 75.3291 18.8242 75.3779 18.7752C75.3916 18.7615 76.2458 17.3368 77.2762 15.6091L79.1497 12.4678L78.5751 12.1366L78.0005 11.8054L76.282 14.6948ZM29.3385 13.2184C29.2477 13.2713 29.1927 13.4039 29.1927 13.5699C29.1927 13.7792 29.3182 13.9838 29.7779 14.5235C30.391 15.2434 30.6176 15.3564 30.8942 15.0798C31.1212 14.8526 31.0435 14.5757 30.5989 14.0281C29.8738 13.1351 29.6872 13.0153 29.3385 13.2184ZM91.0507 13.3158C90.5551 13.7803 89.992 14.5362 89.992 14.737C89.992 15.003 90.1936 15.2106 90.4518 15.2106C90.718 15.2106 91.8243 13.9148 91.8243 13.6031C91.8243 13.151 91.3961 12.992 91.0507 13.3158ZM36.8551 15.7059L36.397 16.1127L36.5707 16.3071C36.6662 16.414 37.7304 17.6447 38.9356 19.0418C40.1408 20.4389 41.1573 21.616 41.1944 21.6575C41.2542 21.7244 42.1187 21.1327 42.2342 20.9459C42.2848 20.864 37.5211 15.3065 37.3965 15.3021C37.3507 15.3005 37.107 15.4822 36.8551 15.7059ZM80.8305 18.0535C79.525 19.567 78.4452 20.8368 78.4312 20.8752C78.4075 20.9393 79.2225 21.5897 79.3925 21.6423C79.4333 21.655 80.3423 20.6534 81.4124 19.4166C82.4826 18.1798 83.5649 16.9306 83.8177 16.6406L84.2774 16.1133L83.8241 15.7072C83.5747 15.4839 83.3332 15.3012 83.2874 15.3014C83.2416 15.3016 82.136 16.5399 80.8305 18.0535ZM57.4496 16.4181C52.2617 17.0094 47.511 18.9084 43.3098 22.0703C42.0954 22.9843 41.1579 23.807 39.9336 25.0334C38.5728 26.3965 37.5728 27.5709 36.5024 29.0631C35.8943 29.9107 35.7746 30.1295 35.7736 30.3951C35.772 30.8221 35.8952 31.0253 36.2443 31.1712C36.7618 31.3874 37.0076 31.2334 37.6991 30.2596C42.694 23.2265 49.5704 19.0066 57.5343 18.087C58.7001 17.9524 61.3724 17.9076 62.4658 18.0043C67.2384 18.4263 71.7689 20.095 75.7821 22.9089C78.5608 24.8572 81.1646 27.4882 83.2472 30.4521C83.5852 30.9331 83.9199 31.3722 83.991 31.428C84.2206 31.6082 84.7082 31.555 84.9884 31.3192C85.2009 31.1404 85.2447 31.0428 85.2447 30.7475C85.2447 30.4377 85.1587 30.2682 84.583 29.4431C80.0137 22.8954 73.4518 18.4129 66.1885 16.8777C64.2053 16.4585 63.2332 16.3605 60.7584 16.3301C59.1715 16.3106 58.1552 16.3376 57.4496 16.4181ZM23.4251 19.1318C23.3322 19.1859 23.2794 19.3178 23.2794 19.4958C23.2794 19.7327 23.3517 19.8366 23.7583 20.1832C24.4924 20.8092 24.7047 20.9574 24.8671 20.9574C25.0876 20.9574 25.2782 20.7279 25.2782 20.4623C25.2782 20.2713 25.1493 20.1216 24.5659 19.6355C23.8531 19.0415 23.6979 18.9729 23.4251 19.1318ZM96.4522 19.6298C95.8071 20.1614 95.7388 20.2454 95.7388 20.5061C95.7388 20.7328 95.7833 20.8146 95.947 20.8893C96.2214 21.0143 96.3804 20.9347 97.1339 20.2955C97.6656 19.8444 97.7377 19.7494 97.7377 19.4988C97.7377 19.2122 97.5709 19.0418 97.2906 19.0418C97.2219 19.0418 96.8446 19.3064 96.4522 19.6298ZM64.3933 24.1638C64.1334 24.4238 64.2273 24.6864 64.6594 24.9078C64.8434 25.0021 64.9917 25.1731 65.0982 25.4141C65.3597 26.0052 65.7177 26.0077 66.002 25.4202C66.1144 25.1881 66.2797 25.0113 66.4848 24.9036C66.73 24.775 66.8022 24.684 66.8223 24.4783C66.87 23.9922 66.4155 23.9281 65.8619 24.3427L65.5933 24.5439L65.2789 24.3382C64.839 24.0504 64.5614 23.9958 64.3933 24.1638ZM18.5487 26.0545C18.4013 26.2019 18.4272 26.5768 18.5945 26.7188C18.6746 26.7869 19.0501 27.0215 19.4287 27.2401C20.1873 27.6782 20.4862 27.7027 20.5786 27.3342C20.6725 26.9601 20.5749 26.8324 19.8635 26.3985C19.1527 25.9651 18.7449 25.8583 18.5487 26.0545ZM101.152 26.3968C100.455 26.8225 100.444 26.8341 100.444 27.1603C100.444 27.4408 100.477 27.5029 100.659 27.5667C100.838 27.6297 100.988 27.5764 101.575 27.2427C102.462 26.738 102.568 26.6453 102.568 26.3748C102.568 25.8138 102.095 25.8212 101.152 26.3968ZM69.551 27.7512C69.4791 27.8232 69.4202 27.9517 69.4202 28.0368C69.4202 28.2035 69.6283 28.4532 69.7673 28.4532C69.9845 28.4532 70.3746 28.8521 70.5539 29.2575C70.7262 29.6473 70.7805 29.7025 70.9914 29.7025C71.2574 29.7025 71.3707 29.5989 71.4467 29.2861C71.5145 29.0063 71.8535 28.6565 72.2554 28.4514C72.5201 28.3164 72.5851 28.2376 72.5851 28.0518C72.5851 27.4592 71.9542 27.4999 71.2836 28.1358L71.023 28.3827L70.8158 28.1755C70.5855 27.9451 69.9936 27.6203 69.8042 27.6203C69.737 27.6203 69.6231 27.6792 69.551 27.7512ZM52.5297 28.22C52.34 28.4096 52.4142 28.7024 52.6901 28.8527C53.1631 29.1105 53.4154 29.3694 53.5585 29.7442C53.6363 29.9478 53.7701 30.1367 53.856 30.1639C54.1333 30.2519 54.3213 30.1225 54.4658 29.7442C54.6089 29.3694 54.8612 29.1105 55.3343 28.8527C55.5116 28.756 55.5946 28.6485 55.5946 28.5154C55.5946 27.9495 54.8828 28.0146 54.1996 28.643L54.0122 28.8154L53.8248 28.643C53.3265 28.1848 52.7524 27.9972 52.5297 28.22ZM15.0127 33.6778C14.841 33.8675 14.8287 34.0321 14.9715 34.2268C15.0796 34.3741 16.5261 34.9496 16.7884 34.9496C17.0299 34.9496 17.2111 34.7059 17.1831 34.4186C17.1595 34.1755 17.1112 34.1399 16.4499 33.8782C15.5263 33.5129 15.2027 33.4677 15.0127 33.6778ZM104.732 33.8089C103.826 34.1489 103.818 34.1553 103.818 34.4981C103.818 34.7276 103.862 34.8066 104.033 34.8848C104.216 34.968 104.353 34.9466 104.929 34.7453C106.118 34.3292 106.305 34.158 106.03 33.7378C105.852 33.4664 105.61 33.4797 104.732 33.8089ZM52.2271 35.72C52.1105 35.823 50.7782 37.4065 49.2665 39.2388L46.5179 42.5703L46.9127 42.9225C47.1299 43.1163 47.3451 43.2735 47.3909 43.2718C47.4367 43.2702 48.5798 41.9201 49.9311 40.2715C51.2824 38.623 52.445 37.2217 52.5144 37.1576C52.6254 37.0553 52.9568 37.4244 55.2159 40.1657C56.6322 41.8843 57.8673 43.3439 57.9606 43.4092C58.1047 43.5102 59.3288 43.5281 66.0694 43.5281H74.0085L74.2096 43.327C74.453 43.0837 74.5414 42.7736 74.4464 42.4968C74.346 42.2047 69.0019 35.7324 68.7708 35.623C68.6372 35.5599 66.1445 35.5326 60.5093 35.5326H52.439L52.2271 35.72ZM53.9289 36.7565C53.9289 36.7884 54.0296 36.9195 54.1527 37.048L54.3765 37.2816H61.5235C65.4544 37.2816 68.6695 37.2535 68.668 37.2191C68.6665 37.1847 68.5747 37.0536 68.4637 36.9276L68.2622 36.6986H61.0955C57.1539 36.6986 53.9289 36.7246 53.9289 36.7565ZM55.3447 38.4181C55.3447 38.4486 55.4404 38.5989 55.5572 38.7521L55.7697 39.0306H62.9281C66.8652 39.0306 70.0865 39.0094 70.0865 38.9834C70.0865 38.9575 69.989 38.8083 69.8697 38.652L69.6529 38.3677L62.4988 38.3652C58.5641 38.3638 55.3447 38.3876 55.3447 38.4181ZM82.8603 40.0943C82.7164 40.2111 82.5302 40.6963 82.6292 40.6963C82.6722 40.6963 83.5789 40.009 83.5789 39.9764C83.5789 39.8805 83.0084 39.9742 82.8603 40.0943ZM56.7606 40.1606C56.7606 40.1865 56.8591 40.3368 56.9794 40.4945L57.1981 40.7814L64.3503 40.7787C68.5416 40.7771 71.5024 40.745 71.5024 40.7009C71.5024 40.6596 71.4053 40.5105 71.2867 40.3696L71.0711 40.1133H63.9159C59.9805 40.1133 56.7606 40.1346 56.7606 40.1606ZM36.7718 40.7302C36.7718 40.7718 37.5889 41.3626 37.6465 41.3626C37.7748 41.3626 37.6607 40.9365 37.5028 40.826C37.3412 40.7127 36.7718 40.6381 36.7718 40.7302ZM79.9945 40.8498C79.7497 41.0496 79.821 41.0909 80.4766 41.129C80.9481 41.1564 80.9651 41.1457 80.798 40.9256C80.6207 40.692 80.2329 40.6554 79.9945 40.8498ZM39.5686 41.6283C39.4983 41.7286 39.4557 41.8256 39.474 41.8439C39.4922 41.8621 39.7569 41.8503 40.0621 41.8176L40.6168 41.7582L40.3809 41.6026C40.0607 41.3915 39.727 41.4021 39.5686 41.6283ZM12.8398 41.7648C12.4646 42.1794 12.7832 42.4843 13.7639 42.6491C14.1876 42.7203 14.6066 42.7785 14.6949 42.7785C15.07 42.7785 15.2566 42.2602 14.9715 42.0103C14.837 41.8924 13.5546 41.6119 13.1521 41.6123C13.0562 41.6124 12.9156 41.681 12.8398 41.7648ZM106.787 41.7737C106.382 41.8543 106.017 41.9728 105.976 42.0371C105.861 42.2187 105.887 42.5036 106.031 42.6477C106.193 42.8099 106.408 42.8064 107.355 42.6265C108.001 42.5037 108.119 42.4549 108.224 42.2663C108.334 42.071 108.332 42.0253 108.204 41.8303C108.033 41.5692 107.851 41.5619 106.787 41.7737ZM58.1765 41.9311C58.1765 41.969 58.2633 42.0814 58.3692 42.181L58.562 42.3621H65.7465H72.9309L72.7372 42.1168L72.5434 41.8716L65.36 41.8669C61.4091 41.8644 58.1765 41.8933 58.1765 41.9311ZM50.5974 45.0272V47.0261H52.5963H54.5952V45.0272V43.0284H52.5963H50.5974V45.0272ZM51.7634 44.9827V45.8601H52.6408H53.5183L53.4945 45.0064L53.4708 44.1527L52.6171 44.129L51.7634 44.1053V44.9827ZM103.93 47.9457C103.261 48.0781 102.577 48.5163 102.134 49.098C101.837 49.4872 101.569 50.339 101.569 50.8948C101.569 51.6554 101.282 51.7521 100.198 51.3574C99.5903 51.1362 99.1854 51.1782 98.5112 51.5329C97.8705 51.8699 97.7052 51.8329 97.2442 51.2494C96.6294 50.471 96.0881 50.191 95.1983 50.191C94.5849 50.191 93.8022 50.5358 93.4388 50.9663C93.0847 51.3856 92.8255 52.0179 92.8246 52.4643C92.8239 52.7767 92.7792 52.9083 92.6193 53.0682C92.3594 53.3281 92.0973 53.3273 91.7424 53.0654C91.356 52.7803 90.992 52.7254 90.6297 52.8973C90.1296 53.1345 89.9063 53.635 90.0738 54.1427L90.1715 54.4386H97.7403H105.309L105.356 54.168C105.455 53.6006 105.555 50.3051 105.508 49.1968L105.458 48.0383L104.943 47.9486C104.375 47.8497 104.415 47.8498 103.93 47.9457ZM15.6899 48.3308C15.4948 48.3829 15.4217 50.1975 15.5293 52.3148C15.5759 53.231 15.6147 54.0836 15.6155 54.2096L15.617 54.4386H22.7283H29.8396L29.8898 54.2513C30.0419 53.6836 29.8538 53.2016 29.3949 52.9839C29.043 52.8169 28.7112 52.8559 28.3608 53.1054C28.0797 53.3055 27.6722 53.3226 27.4913 53.1418C27.4193 53.0697 27.3604 52.8892 27.3604 52.7404C27.3604 52.2326 27.1127 51.6056 26.7618 51.2248C26.3241 50.75 25.9932 50.5507 25.4482 50.4338C24.5809 50.2478 23.5456 50.7302 23.0333 51.559C22.7806 51.968 22.5478 51.9918 21.9369 51.6716C21.2893 51.3321 20.6771 51.3036 20.1327 51.5876C19.7224 51.8015 19.4631 51.8219 19.239 51.6581C19.1169 51.5688 19.068 51.39 19.0233 50.8689C18.952 50.041 18.7259 49.5408 18.183 49.0105C17.6781 48.5175 17.0549 48.2718 16.3426 48.2851C16.0581 48.2904 15.7643 48.311 15.6899 48.3308ZM12.1814 50.0311C12.0118 50.1299 11.9819 50.6037 12.1356 50.7574C12.202 50.8238 12.5639 50.8573 13.2136 50.8573C14.1299 50.8573 14.1999 50.8457 14.3213 50.6722C14.4927 50.4276 14.4849 50.3082 14.2844 50.1077C14.1382 49.9615 14.0088 49.9415 13.2225 49.9437C12.73 49.9451 12.2615 49.9844 12.1814 50.0311ZM106.677 50.159C106.549 50.3543 106.547 50.3995 106.657 50.5962C106.778 50.8116 106.799 50.8161 107.765 50.8392C108.866 50.8656 108.981 50.8232 108.981 50.392C108.981 50.0016 108.815 49.9412 107.739 49.9412C106.84 49.9412 106.817 49.9458 106.677 50.159ZM63.84 52.3565V54.4386H64.7145H65.589V52.3565V50.2743H64.7145H63.84V52.3565ZM6.09607 59.4298C5.17467 59.618 4.76723 60.588 5.35107 61.2034C5.55995 61.4237 5.81214 61.5278 6.80892 61.8055C7.3562 61.958 7.59057 62.2142 7.50278 62.564C7.3627 63.1219 6.13155 63.1539 5.19966 62.6238C5.17325 62.6087 5.10854 62.6909 5.05598 62.8062C4.97178 62.991 4.98444 63.0318 5.16251 63.1484C5.78733 63.5578 6.78652 63.6262 7.43357 63.3037C7.78812 63.127 7.88507 63.0284 8.00001 62.7275C8.11452 62.4275 8.1216 62.313 8.04065 62.0676C7.91055 61.6736 7.61455 61.4778 6.82183 61.2615C5.97114 61.0294 5.72011 60.8959 5.65623 60.6414C5.49149 59.9849 6.61586 59.6266 7.46405 60.0652C7.75847 60.2175 7.75564 60.2187 7.83202 59.9142C7.88315 59.7104 7.85833 59.6719 7.6098 59.5684C7.24426 59.4164 6.49651 59.3479 6.09607 59.4298ZM0.292236 61.4347V63.4336H1.74975H3.20727V63.2254V63.0172H2.04126H0.875243V62.3509V61.6846H1.87468H2.87412V61.4347V61.1849H1.87468H0.875243V60.5602V59.9356H1.99961H3.12398V59.6857V59.4358H1.70811H0.292236V61.4347ZM9.45377 59.6857V59.9356H10.1617H10.8696V61.6846V63.4336H11.1195H11.3694V61.6846V59.9356H12.0773H12.7852V59.6857V59.4358H11.1195H9.45377V59.6857ZM14.6175 61.4347V63.4336L15.7627 63.4328C16.7906 63.432 16.9512 63.4118 17.3303 63.2353C18.3369 62.7666 18.7365 61.5982 18.2487 60.5505C17.8537 59.7021 17.2423 59.4358 15.6898 59.4358H14.6175V61.4347ZM101.569 60.1021C101.569 60.3495 101.574 60.352 102.027 60.352H102.485V62.1427V63.9333H102.777H103.068V61.8928V59.8523H102.318H101.569V60.1021ZM105.684 60.0098C105.242 60.2795 105.067 60.5747 105.067 61.0504C105.068 61.7286 105.399 62.1341 106.086 62.2987C106.425 62.3801 106.956 62.2696 107.279 62.0504L107.566 61.8562V62.1275C107.566 62.5471 107.237 63.119 106.899 63.2877C106.583 63.4457 105.949 63.4798 105.624 63.3564C105.45 63.2902 105.407 63.3099 105.323 63.4946C105.204 63.7565 105.279 63.8206 105.801 63.8995C106.988 64.079 107.846 63.5314 108.07 62.4507C108.294 61.3743 107.94 60.3459 107.216 59.9693C106.881 59.7949 105.998 59.8182 105.684 60.0098ZM110.378 60.0238C109.676 60.3941 109.553 61.4628 110.153 61.9678C110.667 62.4003 111.464 62.4318 112.038 62.0425L112.336 61.8403L112.291 62.1795C112.225 62.673 111.971 63.1049 111.644 63.2802C111.336 63.4454 110.705 63.4831 110.372 63.3564C110.199 63.2907 110.155 63.3098 110.075 63.4852C109.951 63.7558 109.943 63.7372 110.243 63.8419C110.736 64.0136 111.418 63.9556 111.907 63.7003C112.281 63.5052 112.393 63.3888 112.6 62.9855C112.814 62.5656 112.845 62.4168 112.843 61.8235C112.838 60.8345 112.538 60.2297 111.92 59.9665C111.526 59.7985 110.75 59.8272 110.378 60.0238ZM115.421 60.0581C114.904 60.375 114.617 61.006 114.61 61.8407C114.604 62.6376 114.791 63.1538 115.228 63.5485C115.983 64.2304 117.193 63.9786 117.648 63.0451C117.932 62.4622 117.935 61.3158 117.655 60.7454C117.36 60.1453 116.992 59.904 116.32 59.8713C115.847 59.8482 115.72 59.8747 115.421 60.0581ZM15.1362 61.4556L15.1589 62.9755L15.9501 62.9691C16.5881 62.964 16.8086 62.928 17.0883 62.7836C17.5964 62.5214 17.8117 62.1721 17.8516 61.5452C17.8801 61.0984 17.8537 60.9709 17.6683 60.6543C17.3449 60.1025 16.9392 59.9356 15.922 59.9356H15.1135L15.1362 61.4556ZM106.018 60.3869C105.49 60.6167 105.438 61.3868 105.929 61.6953C106.125 61.819 106.292 61.8517 106.594 61.8257C107.117 61.7806 107.416 61.5049 107.416 61.0683C107.416 60.7099 107.29 60.5341 106.923 60.3807C106.59 60.2416 106.348 60.2431 106.018 60.3869ZM110.712 60.3986C110.013 60.7775 110.256 61.7348 111.073 61.827C111.867 61.9165 112.392 61.2997 112.056 60.6727C111.866 60.3168 111.136 60.1681 110.712 60.3986ZM115.999 60.3295C115.684 60.3867 115.338 60.8104 115.226 61.2745C115.109 61.762 115.168 62.4934 115.353 62.8504C115.749 63.6165 116.736 63.6303 117.111 62.8751C117.325 62.4442 117.33 61.2632 117.119 60.8733C116.896 60.46 116.456 60.2466 115.999 60.3295ZM21.9765 61.1009C21.7015 61.2118 21.5303 61.5199 21.5303 61.904C21.5303 62.1912 21.5756 62.2908 21.7866 62.4684L22.0428 62.684H59.7301H97.4174L97.6608 62.4406C98.0479 62.0535 97.9528 61.3837 97.4757 61.137C97.278 61.0348 92.0407 61.019 59.7006 61.0235C38.7904 61.0265 22.0759 61.0608 21.9765 61.1009ZM42.3947 70.1426C41.0238 70.4879 39.8166 71.4286 39.2395 72.6013C38.0148 75.0899 38.9255 78.0067 41.2913 79.1729C42.1214 79.582 42.8942 79.7549 43.8928 79.7549C44.851 79.7549 45.6196 79.5903 46.3881 79.2207C47.0374 78.9084 48.0291 78.0631 47.8874 77.9427C47.8434 77.9052 47.4512 77.5527 47.0161 77.1593L46.2249 76.4442L45.7899 76.8443C44.5523 77.9825 42.5193 77.7032 41.7524 76.2897C41.1379 75.1568 41.3342 73.6656 42.2009 72.8826C42.7176 72.4158 43.202 72.2322 43.9345 72.2258C44.7071 72.219 45.2019 72.3963 45.823 72.9021L46.2759 73.271L47.1084 72.5035L47.941 71.7359L47.6033 71.3918C47.1798 70.9603 46.5133 70.5532 45.7869 70.2825C45.3067 70.1036 45.0566 70.0692 44.0594 70.0452C43.2155 70.0248 42.7555 70.0517 42.3947 70.1426ZM75.1263 70.1426C72.8963 70.7043 71.422 72.592 71.422 74.8855C71.422 77.2486 72.9857 79.1501 75.3336 79.642C76.2274 79.8293 77.6777 79.7643 78.4568 79.5022C79.1023 79.285 80.1768 78.598 80.4477 78.2292L80.6223 77.9915L79.831 77.2526C79.3959 76.8463 79.0078 76.5129 78.9688 76.5117C78.9297 76.5105 78.7131 76.6756 78.4874 76.8786C77.4613 77.8012 75.8322 77.7687 74.8701 76.8065C74.3449 76.2814 74.1303 75.7241 74.1303 74.8855C74.1303 74.1153 74.3382 73.5342 74.7956 73.0254C75.3054 72.4584 75.8473 72.2317 76.7078 72.2253C77.2617 72.2212 77.4513 72.2572 77.8322 72.4391C78.0841 72.5594 78.4214 72.7925 78.5817 72.957C78.7421 73.1215 78.9012 73.2574 78.9354 73.2588C78.9698 73.2603 79.3776 72.9161 79.8419 72.4939L80.686 71.7262L80.2531 71.3281C79.7279 70.8453 79.2391 70.5513 78.5084 70.2789C78.0397 70.1041 77.7823 70.0691 76.7911 70.0452C75.9472 70.0248 75.4872 70.0517 75.1263 70.1426ZM1.29168 74.8855V79.5912L4.18589 79.5883C7.35012 79.5852 8.00292 79.5219 8.84703 79.1361C9.40955 78.8791 9.81407 78.5173 10.0611 78.0504C10.1995 77.7887 10.238 77.5654 10.2406 77.0093C10.2434 76.3979 10.2133 76.2433 10.0195 75.875C9.78534 75.43 9.44869 75.0967 9.00652 74.872C8.86319 74.7991 8.73001 74.7252 8.71061 74.7079C8.69128 74.6905 8.83687 74.5381 9.03426 74.3691C9.54073 73.9356 9.78559 73.3701 9.78425 72.6368C9.78259 71.6907 9.39222 71.071 8.51921 70.6286C7.76405 70.2459 7.1095 70.1798 4.07445 70.1798H1.29168V74.8855ZM14.3677 74.8855V79.5912H18.1156H21.8635V78.5501V77.5091H19.4065H16.9496V76.6762V75.8433H19.0317H21.1139V74.8453V73.8474L19.0526 73.825L16.9912 73.8028L16.9672 73.0324L16.9433 72.262H19.3201H21.6969V71.2209V70.1798H18.0323H14.3677V74.8855ZM28.1983 72.1582C27.72 73.246 26.7924 75.3484 26.1369 76.8301C25.4814 78.3119 24.9451 79.5393 24.9451 79.5578C24.9451 79.5762 25.5577 79.5912 26.3064 79.5912H27.6677L28.0273 78.6737L28.3868 77.756L30.3807 77.7783L32.3745 77.8006L32.7246 78.6751L33.0746 79.5496L34.4728 79.5725C35.3422 79.5867 35.8602 79.565 35.8425 79.5152C35.8268 79.4711 34.8958 77.3534 33.7735 74.8092L31.733 70.1832L30.4004 70.1818L29.0678 70.1805L28.1983 72.1582ZM51.7634 74.8855V79.5912H53.096H54.4286V77.7589V75.9266H56.2609H58.0932V77.7589V79.5912H59.4258H60.7584V74.8855V70.1798H59.4258H58.0932V71.9289V73.6779H56.2609H54.4286V71.9289V70.1798H53.096H51.7634V74.8855ZM84.4951 74.8855V79.5912H88.0764H91.6577V78.5515V77.5118L89.4298 77.4896L87.2019 77.4674L87.1802 73.8236L87.1585 70.1798H85.8268H84.4951V74.8855ZM95.2391 73.244C95.2391 76.594 95.2636 76.8176 95.7336 77.7487C96.392 79.0529 97.7488 79.7549 99.6116 79.7549C101.513 79.7549 102.822 79.0873 103.518 77.7634C104.01 76.8279 104.067 76.3307 104.067 73.0459V70.1798H102.735H101.402V73.0797C101.402 76.3276 101.366 76.608 100.884 77.0641C100.473 77.4532 100.247 77.5406 99.6533 77.5406C99.0595 77.5406 98.8335 77.4532 98.4225 77.0641C97.9407 76.608 97.9043 76.3276 97.9043 73.0797V70.1798H96.5717H95.2391V73.244ZM108.565 74.8869V79.605L111.751 79.5692C114.318 79.5405 115.021 79.5084 115.373 79.4035C116.897 78.9497 117.545 78.1438 117.459 76.8112C117.401 75.9266 116.997 75.2799 116.269 74.9096C116.086 74.8164 115.924 74.7298 115.91 74.7171C115.895 74.7046 116.071 74.5182 116.301 74.3033C116.815 73.8228 117.018 73.3376 117.018 72.5929C117.019 71.5726 116.411 70.8306 115.237 70.4189C114.707 70.2329 114.574 70.2247 111.626 70.1973L108.565 70.1688V74.8869ZM3.95685 73.0192V73.943L5.18533 73.9107C6.52833 73.8754 6.80434 73.8002 7.00306 73.4159C7.27724 72.8857 7.05212 72.3674 6.47228 72.1936C6.29204 72.1396 5.6524 72.0954 5.05074 72.0954H3.95685V73.0192ZM111.147 73.0116V73.9277H112.193C113.411 73.9277 113.916 73.8254 114.147 73.5313C114.365 73.2549 114.362 72.7647 114.141 72.4843C113.899 72.1768 113.508 72.0964 112.25 72.0959L111.147 72.0954V73.0116ZM30.3078 72.9699C30.2721 73.0616 30.0102 73.7174 29.7258 74.4275L29.2086 75.7184L30.3365 75.7416C30.9568 75.7545 31.4796 75.7496 31.4983 75.7311C31.5168 75.7124 31.2712 75.0461 30.9525 74.2503C30.5047 73.1325 30.3581 72.8413 30.3078 72.9699ZM3.95685 76.7248V77.6894L5.39355 77.6614C7.02488 77.6297 7.29282 77.5514 7.50453 77.0447C7.72033 76.5281 7.44557 76.0013 6.87805 75.8437C6.71431 75.7982 5.99013 75.7608 5.26862 75.7605L3.95685 75.76V76.7248ZM111.147 76.7178V77.6756H112.401C114.233 77.6756 114.689 77.5058 114.785 76.7885C114.818 76.5389 114.786 76.4151 114.639 76.2289C114.318 75.8217 114.04 75.76 112.524 75.76H111.147V76.7178ZM50.3762 82.6721C49.5304 82.8497 48.8057 83.4591 48.5107 84.2408C48.3684 84.6178 48.3397 84.8397 48.3685 85.338C48.4317 86.429 49.0028 87.215 50.0078 87.5942C50.6839 87.8493 51.6388 87.7935 52.2448 87.4637C52.8696 87.1238 52.9205 87.0402 52.6616 86.7813L52.4487 86.5684L52.132 86.7836C51.3484 87.3161 50.3477 87.2311 49.6322 86.5716C48.8513 85.8517 48.8407 84.4858 49.6107 83.7861C50.3014 83.1585 51.523 83.0907 52.18 83.6436L52.4377 83.8604L52.6419 83.6685C52.9093 83.4173 52.8992 83.3343 52.5749 83.1142C51.9632 82.6989 51.0873 82.5228 50.3762 82.6721ZM67.6998 82.6721C66.854 82.8497 66.1294 83.4591 65.8344 84.2408C65.692 84.6178 65.6633 84.8397 65.6921 85.338C65.7553 86.429 66.3264 87.215 67.3315 87.5942C68.0076 87.8493 68.9625 87.7935 69.5685 87.4637C70.1932 87.1238 70.2442 87.0402 69.9852 86.7813L69.7723 86.5684L69.4556 86.7836C68.672 87.3161 67.6713 87.2311 66.9558 86.5716C66.1749 85.8517 66.1644 84.4858 66.9343 83.7861C67.625 83.1585 68.8466 83.0907 69.5036 83.6436L69.7613 83.8604L69.9656 83.6685C70.2329 83.4173 70.2228 83.3343 69.8985 83.1142C69.2869 82.6989 68.4109 82.5228 67.6998 82.6721ZM28.9429 85.1696V87.6823L30.6294 87.6554C32.1371 87.6312 32.346 87.6107 32.5987 87.4618C33.0076 87.221 33.2088 86.9069 33.2484 86.4477C33.2918 85.9437 33.0965 85.5366 32.6834 85.2704L32.3847 85.0777L32.6521 84.8103C33.2177 84.2447 33.0627 83.2888 32.3438 82.9092C32.0137 82.7349 31.8526 82.716 30.4628 82.6877L28.9429 82.6569V85.1696ZM35.8557 85.1714V87.67H37.6463H39.437V87.3785V87.087H37.9795H36.522V86.2542V85.4213H37.7713H39.0206V85.1298V84.8383H37.7681H36.5157L36.5396 84.0679L36.5636 83.2975L37.9586 83.2747L39.3537 83.2519V82.9623V82.6728H37.6047H35.8557V85.1714ZM42.5201 85.1006C41.9157 86.4358 41.4045 87.5714 41.3843 87.6241C41.3584 87.6916 41.4612 87.7064 41.7327 87.6741C42.1129 87.629 42.1205 87.6221 42.327 87.1287C42.4421 86.8538 42.5743 86.5822 42.6209 86.5248C42.682 86.4497 43.0635 86.4207 43.9918 86.4207H45.2779L45.5665 87.0454L45.8551 87.67H46.2253H46.5955L46.3205 87.0662C46.1694 86.7341 45.6587 85.6098 45.1856 84.5676L44.3254 82.6728H43.9723H43.6191L42.5201 85.1006ZM55.428 85.1714V87.67H55.7612H56.0943V86.5437V85.4174L57.531 85.4401L58.9677 85.4629L58.991 86.5665L59.0142 87.67H59.3449H59.6757V85.1714V82.6728H59.3425H59.0094V83.7556V84.8383H57.5518H56.0943V83.7556V82.6728H55.7612H55.428V85.1714ZM72.7517 85.1714V87.67H74.459H76.1664V87.3785V87.087H74.7922H73.418V84.8799V82.6728H73.0848H72.7517V85.1714ZM78.347 84.526C78.3716 86.2455 78.3867 86.4037 78.556 86.7202C78.9679 87.4898 79.6052 87.7994 80.6422 87.7335C81.4875 87.6798 81.9468 87.3949 82.2874 86.7128L82.5367 86.2136L82.5674 84.4433L82.5981 82.6728H82.2185H81.8389L81.8136 84.4993C81.7899 86.2045 81.7766 86.3413 81.613 86.5607C81.3256 86.9458 80.933 87.1273 80.4031 87.1201C79.8156 87.1121 79.4488 86.9091 79.2146 86.4624C79.0565 86.1611 79.0372 85.9641 79.013 84.401L78.9861 82.6728H78.6533H78.3205L78.347 84.526ZM85.4945 85.1696V87.6823L87.1811 87.6554C88.6887 87.6312 88.8976 87.6107 89.1504 87.4618C89.5593 87.221 89.7605 86.9069 89.8 86.4477C89.8435 85.9437 89.6481 85.5366 89.2351 85.2704L88.9364 85.0777L89.2038 84.8103C89.7694 84.2447 89.6144 83.2888 88.8955 82.9092C88.5654 82.7349 88.4043 82.716 87.0145 82.6877L85.4945 82.6569V85.1696ZM29.6092 84.0535V84.8512L30.7409 84.8239C31.8633 84.7969 31.8744 84.7947 32.0735 84.5629C32.2885 84.3128 32.3342 83.9398 32.1844 83.6598C32.0248 83.3617 31.6017 83.2558 30.5696 83.2558H29.6092V84.0535ZM86.1674 84.0533L86.1822 84.8508L87.2894 84.8237C88.3279 84.7983 88.41 84.7841 88.6114 84.5948C88.7601 84.4548 88.826 84.3062 88.826 84.1104C88.826 83.4303 88.4772 83.2558 87.1171 83.2558H86.1525L86.1674 84.0533ZM43.4465 84.5883C43.1651 85.2319 42.935 85.7951 42.935 85.8397C42.935 85.8883 43.3549 85.921 43.9761 85.921C44.5487 85.921 45.0172 85.89 45.0172 85.8521C45.0172 85.7889 44.0295 83.4935 43.9798 83.4411C43.9678 83.4285 43.7277 83.9447 43.4465 84.5883ZM29.6447 85.532C29.6214 85.5929 29.6132 85.9771 29.6266 86.3857L29.6508 87.1287L30.48 87.1527C31.9558 87.1955 32.5242 86.9573 32.5242 86.2958C32.5242 85.8935 32.3023 85.632 31.851 85.5026C31.4042 85.3745 29.6964 85.3972 29.6447 85.532ZM86.1964 85.532C86.1731 85.5929 86.1648 85.9771 86.1782 86.3857L86.2025 87.1287L87.0317 87.1527C88.5075 87.1955 89.0759 86.9573 89.0759 86.2958C89.0759 85.8935 88.854 85.632 88.4027 85.5026C87.9558 85.3745 86.2481 85.3972 86.1964 85.532Z" fill="#111658"/>
</svg>
